<svg xmlns="http://www.w3.org/2000/svg" xml:space="preserve" version="1.0" viewBox="0 0 220 169">
       <path d="M198 24c-3 0-2 1-8 3-6 1-13 0-19 3-17 7-20 34-40 45-13 7-26 9-38 13-10 4-16 6-23 12l-12 15c-6 8-28 1-34 11 3 2 5 3 10 2-1 2-8 5-7 8 0 0 17 3 31-6 7-2 13-8 23-9 13-2 28 2 44 4l-10 15c-2 2 1 3 4 2l17-7c7-5 10-9 15-15 5 8 22 9 25 3-6-3-8-17-5-23l6-22 5-23c3-7 8-9 12-12 4-4 8-7 8-15 0-2-1-4-4-4z"/>
       <path fill="#c0765a" d="M29 134c11 1 13 0 22-3 6-3 16-11 24-14 12-4 25-3 38-2 4 1 8 2 11 1 5-3 5-11 8-11-1 15-7 25-14 34 14-2 24-11 29-22l6-12v6c9-7 13-15 17-28 4-14 8-26 11-31l10-9c5-3 9-6 9-12-4 0-5-1-6-4-2 2-4 2-7 2h-7c-22 3-23 25-40 41l-4 3c-5 4-10 6-16 8-9 4-18 5-27 8l-18 9-4 3-7 8-7 9c-5 5-23 1-29 6l-2 2 10 1c1 3-8 6-7 7z"/>
       <path d="M173 39c3 2 10 0 8-5-5-1-7 1-8 5z"/>
       <path d="M195 32c-1 2-2 4-2 9h-1c0-5 1-6 2-9h1z"/>
       <path d="M194 32c-1 1-3 4-4 9 0 1 0 1 0 0 0-4 2-7 4-10v1zm-1-1c-1 1-4 5-5 9 0 1-1 2-1 0 1-4 4-7 6-10v1z"/>
       <path d="M193 30c-2 1-6 6-7 10h-1c1-4 5-9 7-11 1-1 1 0 1 1z"/>
 </svg>
