<svg xmlns="http://www.w3.org/2000/svg" xml:space="preserve" id="Layer_1" x="0" y="0" version="1.1" viewBox="0 0 46 40"><style>.st3{fill:url(#SVGID_00000019666355307410372800000003889290272895494073_)}.st4{fill:url(#SVGID_00000078009838544920653140000003022816676572672415_)}.st5{fill:url(#SVGID_00000155143267251231807990000005331660806572861321_)}</style><path fill="#fff" d="M24 35v-1l-1-1-1-2v-4h2l3-1 3-1 3-3v-3h3l1-1h2-1v-2l-2-1h-2l-2-1-4 1v2l-1 2-1 2h-2l-2-1-2-1-1-2v-1l-1-2-1-2-2-1-2 1-1 1v2l-1 1h-1l-1-2-2-2-1-1c-2 0-2 1-3 3l-1 2-2 2v13-1l2-2v-1l1-1v-1l2 1 2 1 3 1h3l-1 2-1 2-1 2v1l-1 2v2h1l1-2 1-2 1-2 1-2 3-4 2 1 1 2 2 5v1l1 1v1l1 2h1l-1-5z"/><path fill="#484444" d="M23 27z"/><linearGradient id="SVGID_1_" x1="23" x2="23" y1="14.9" y2="14.9" gradientTransform="matrix(1 0 0 -1 0 42)" gradientUnits="userSpaceOnUse"><stop offset="0" stop-color="#f29100"/><stop offset="1" stop-color="#ec670f"/></linearGradient><path fill="url(#SVGID_1_)" d="M23 27z"/><linearGradient id="SVGID_00000159432202981495199820000013440889407401948575_" x1="16.9" x2="16.9" y1="14.6" y2="2.1" gradientTransform="matrix(1 0 0 -1 0 42)" gradientUnits="userSpaceOnUse"><stop offset="0" stop-color="#f29100"/><stop offset="1" stop-color="#ec670f"/></linearGradient><path fill="url(#SVGID_00000159432202981495199820000013440889407401948575_)" d="M23 38v-1l-1-1-1-1-1-5-2-2-1-1c-2 1-3 2-3 4l-2 2v2l-2 2v2h2l6 1h6l-1-2z"/><linearGradient id="SVGID_00000089567650013081133770000010991480540068032155_" x1="23" x2="23" y1="42" y2="2" gradientTransform="matrix(1 0 0 -1 0 42)" gradientUnits="userSpaceOnUse"><stop offset="0" stop-color="#f29100"/><stop offset="1" stop-color="#ec670f"/></linearGradient><path fill="url(#SVGID_00000089567650013081133770000010991480540068032155_)" d="M40 0H6C3 0 0 3 0 6v12l2-2 2-2c0-2 0-3 2-3l2 1 1 2 1 2h1l1-1 1-2v-1l2-1 2 1 1 2 1 2 1 1v2l2 1 2 1h2l1-2 1-2v-1l1-1 3-1 2 1h3l1 1 1 2h-1l-2 1-2 1-1 2-3 3-3 2h-5v2l1 2 1 2v2l2 5 2-1h7c5-1 7 2 11 1V6c0-3-3-6-6-6zM23 27z"/><linearGradient id="SVGID_00000104673081434150911260000016506419810385994163_" x1="6.4" x2="6.4" y1="16.5" y2="2.3" gradientTransform="matrix(1 0 0 -1 0 42)" gradientUnits="userSpaceOnUse"><stop offset="0" stop-color="#f29100"/><stop offset="1" stop-color="#ec670f"/></linearGradient><path fill="url(#SVGID_00000104673081434150911260000016506419810385994163_)" d="M11 32v-2l2-2h-3a17 17 0 0 1-5-1l-1-2-1 1-1 1v1l-2 2v9h8l1 1v-3l1-1v-1l1-3z"/></svg>