<svg xmlns="http://www.w3.org/2000/svg" width="244" height="258" fill="none"><path fill="#fff" d="M36 207H26v-6h26v6H42v29h-6v-29Z"/><path fill="#fff" d="m58 231 8-1 1 5-9 1c-8 0-11-3-11-10v-6c0-6 3-10 11-10s10 5 10 10v5H54v2c0 3 1 4 4 4Zm-4-11h8v-1c0-2-1-4-4-4s-4 2-4 4v1Zm30-4-6 3v17h-7v-26h6v3l7-3v6Zm16 0-7 3v17h-6v-26h5v3l7-3 1 6Zm21 20h-5l-1-2-7 2c-5 0-7-3-7-7 0-5 2-7 7-7h6v-3c0-3 0-4-4-4l-7 1-1-5 9-1c7 0 10 3 10 9v17Zm-7-10h-4c-2 0-3 1-3 3 0 1 1 2 3 2l4-1v-4Zm26-21-3-1c-3 0-3 1-3 3v3h6v5h-6v21h-7v-21h-4v-5h4v-3c0-5 3-8 8-8l6 1-1 5Zm12 31c-8 0-10-5-10-10v-6c0-5 2-10 10-10 9 0 11 5 11 10v6c0 5-2 10-11 10Zm0-21c-3 0-4 2-4 5v6c0 3 1 5 4 5 4 0 5-2 5-5v-6c0-3-1-5-5-5Zm28 1-7 3v17h-6v-26h5v3l7-3 1 6Zm17 20v-18l-2-2-7 2v18h-6v-26h5v3l10-3a5 5 0 0 1 5 3c3-2 7-3 10-3 5 0 6 3 6 7v19h-6v-18l-2-2-7 2v18h-6ZM33 193v-5h-5v5h-2v-12h2v5h5v-5h2v12h-2Zm10 0h-2v-1l-2 1c-2 0-3-1-3-3 0-1 1-2 3-2h2v-1l-2-1h-2v-1l3-1c2 0 3 1 3 3v6Zm-2-3h-3l1 1h2v-1Zm7 3-3-1v-1h3l1-1-2-1c-2 0-2-1-2-2 0-2 1-3 3-3h3l-1 2h-2l-1 1 1 1c3 0 3 1 3 2 0 2-1 3-3 3Zm10 0v-6l-1-1-2 1v6h-2v-12h2v4l3-1c1 0 2 1 2 3v6h-2Zm4-10v-2h2v2h-2Zm0 10v-9h2v9h-2Zm4-9c0-2 1-3 4-3h3v2h-3c-2 0-2 1-2 2v4c0 1 0 2 2 2h3v2h-3c-3 0-4-1-4-3v-6Zm12 9c-3 0-4-2-4-3v-3c0-1 1-3 4-3s4 2 4 3v3c0 1-1 3-4 3Zm0-7-2 1v3l2 1 2-1v-3l-2-1Zm10 0-2 1v6h-3v-9h2v1l3-1v2Zm9 4c0 2-1 3-3 3h-3v3h-2v-12h2v1l3-1c2 0 3 1 3 3v3Zm-6 1h2l1-1v-3l-1-1-2 1v4Z"/><path fill="#7B42BC" fill-rule="evenodd" d="m103 47 38 22v45l-38-22V47Zm43 22v45l39-22V47l-39 22ZM60 22v45l38 22V44L60 22Zm43 119 38 23v-45l-38-22v44Z" clip-rule="evenodd"/></svg>