<svg xmlns="http://www.w3.org/2000/svg" viewBox="0 0 300 371"><defs><radialGradient id="radial-gradient" cx="5649.8" cy="4319.4" r="1817.7" gradientTransform="matrix(.25 0 0 .25 -1404 -1055)" gradientUnits="userSpaceOnUse"><stop offset="0" stop-color="#fff" stop-opacity=".1"/><stop offset="1" stop-color="#fff" stop-opacity="0"/></radialGradient><linearGradient id="linear-gradient" x1="6254.1" x2="6424.3" y1="5576.6" y2="5406.3" gradientTransform="matrix(.25 0 0 .25 -1404 -1055)" gradientUnits="userSpaceOnUse"><stop offset="0" stop-color="#1a237e" stop-opacity=".4"/><stop offset="1" stop-color="#1a237e" stop-opacity="0"/></linearGradient><clipPath id="clip-path"><path fill="none" d="M300 171 200 271l100 100H186l-43-42-57-58 100-100ZM186 0 0 186l57 57L300 0Z"/></clipPath><style>.cls-2{clip-path:url(#clip-path)}.cls-4{fill:#54c5f8}</style></defs><g class="cls-2"><path d="M300 171H186L86 271l57 58 157-158z" class="cls-4"/></g><g class="cls-2"><path d="M57 243 0 186 186 0h114L57 243z" class="cls-4"/></g><path fill="#01579b" d="m143 329 43 42h114L200 271l-57 58z" class="cls-2"/><path fill="url(#linear-gradient)" d="m143 329 85-30-28-28-57 58z" class="cls-2"/><path fill="#29b6f6" d="M103 231h81v81h-81z" class="cls-2" transform="rotate(-45 143 271)"/><path fill="url(#radial-gradient)" d="M300 171 200 271l100 100H186l-43-42-57-58 100-100ZM186 0 0 186l57 57L300 0Z"/></svg>