<svg fill="none" xmlns="http://www.w3.org/2000/svg" viewBox="0 0 57 56"><path d="M28.602 55.716c-.433 0-.865-.246-1.112-.677-.186-.431-.186-.862.123-1.232L40.771 35.77l-23.042 9.358c-.185.061-.309.123-.494.123-.556 0-1.05-.37-1.174-.862-.185-.492.062-1.047.494-1.354l20.263-11.882L1.174 29.12C.432 29.058 0 28.504 0 27.889c0-.554.37-1.17 1.174-1.232l35.644-2.031-20.262-11.882c-.433-.308-.68-.862-.495-1.355.186-.492.618-.861 1.174-.861.185 0 .309.061.494.123l23.042 9.358-13.158-18.1c-.247-.37-.309-.862-.123-1.232.185-.43.617-.677 1.112-.677.308 0 .617.123.864.37L55.66 26.41c.37.37.556.924.556 1.416 0 .493-.186.985-.556 1.416L29.466 55.347c-.247.246-.556.369-.864.369z" fill="#fff"></path><path d="M28.602 55.716c-.433 0-.865-.246-1.112-.677-.186-.431-.186-.862.123-1.232L40.771 35.77l-23.042 9.358c-.185.061-.309.123-.494.123-.556 0-1.05-.37-1.174-.862-.185-.492.062-1.047.494-1.354l20.263-11.882L1.174 29.12C.432 29.058 0 28.504 0 27.889c0-.554.37-1.17 1.174-1.232l35.644-2.031-20.262-11.882c-.433-.308-.68-.862-.495-1.355.186-.492.618-.861 1.174-.861.185 0 .309.061.494.123l23.042 9.358-13.158-18.1c-.247-.37-.309-.862-.123-1.232.185-.43.617-.677 1.112-.677.308 0 .617.123.864.37L55.66 26.41c.37.37.556.924.556 1.416 0 .493-.186.985-.556 1.416L29.466 55.347c-.247.246-.556.369-.864.369z" fill="url(#icon-launchdarkly_svg__paint0_linear)"></path><defs><linearGradient id="icon-launchdarkly_svg__paint0_linear" x1="28.107" y1="0" x2="28.107" y2="55.716" gradientUnits="userSpaceOnUse"><stop stop-color="#fff"></stop><stop offset="1" stop-color="#fff" stop-opacity="0"></stop></linearGradient></defs></svg>