<svg xmlns="http://www.w3.org/2000/svg" xml:space="preserve" viewBox="50 210 450 350"><style>.w{fill:#fff}</style><path d="M124.09 462.5c-1 0-1.91-.28-2.71-.83-.8-.55-1.48-1.25-2.04-2.11-.55-.85-.98-1.78-1.28-2.79-.3-1-.45-1.96-.45-2.87.3-4.22 1.86-10.43 4.68-18.63 2.82-8.19 6.94-18.52 12.37-30.99 10.55-24.23 15.99-39.77 16.29-46.6v-.6c0-.2.05-.55.15-1.06v-2.11c0-4.42-2.21-6.63-6.64-6.63h-1.36c-.5 0-1.01.05-1.51.15-12.57 1.81-24.89 9.05-36.95 21.72-11.16 11.76-17.2 22.42-18.1 31.97-.3 4.02.65 6.69 2.86 7.99.3.21.75.33 1.36.38.6.05 1.3.17 2.11.37 1.01.1 1.51.45 1.51 1.06 0 .9-.76 1.51-2.26 1.81-1 0-1.96-.4-2.86-1.21-.61-.2-1.23-.63-1.89-1.28-.65-.65-1.38-1.63-2.19-2.94-1.41-2.51-2.01-4.73-1.81-6.64 1.41-11.96 8.29-24.08 20.66-36.35 12.17-12.06 24.13-18.85 35.9-20.36 4.12-.3 7.69.96 10.71 3.77 3.22 2.92 4.78 6.49 4.67 10.71-.1 3.52-1.43 9.12-4 16.82-2.56 7.69-6.26 17.47-11.09 29.33-10.56 25.34-16.44 41.68-17.65 49.02-.2 1.41-.2 2.82 0 4.22.3 1.81.91 2.71 1.81 2.71s1.96-.81 3.16-2.41c10.96-14.18 20.91-26.52 29.86-37.03 8.95-10.51 16.89-19.28 23.83-26.32 22.92-22.92 41.57-34.39 55.95-34.39 2.71 0 5.28.35 7.69 1.06 1.21.7 1.81 1.16 1.81 1.36 0 .5-.61.6-1.81.3-1-.2-1.96-.35-2.86-.45-.91-.1-1.81-.15-2.71-.15-10.46 0-23.38 6.38-38.76 19.16-5.73 4.62-11.92 10.28-18.55 16.97-6.64 6.69-13.73 14.45-21.27 23.3-5.33 6.24-10.58 12.49-15.76 18.78a2428.22 2428.22 0 0 1-15.76 18.93c-1.59 1.9-3.3 2.86-5.11 2.86z" class="w"/><path d="M162.22 464.38c-.8-.25-1.53-.63-2.19-1.13-.66-.5-1.21-1.11-1.66-1.81-.45-.7-.68-1.46-.68-2.26.2-8.35 6.94-20.66 20.21-36.95.4-.7.3-1.16-.3-1.36-.91-.5-1.81-1.08-2.71-1.74-.91-.65-1.36-1.28-1.36-1.88 0-.3.15-.7.45-1.21.3-.5 1.61-.8 3.92-.91 3.72-.1 5.63-.15 5.73-.15.4 0 .95-.2 1.66-.6 2.21-2.11 4.42-3.22 6.63-3.32 1.61-.1 3.87.8 6.79 2.71.2.1.38.2.53.3.15.1.32.2.53.3 2.31.1 5.1.2 8.37.3 3.27.1 7.01.2 11.24.3 1.51.2 2.26.4 2.26.6 0 .6-.75.91-2.26.91-3.12 0-5.13.6-6.03 1.81-.2.3-.2.6 0 .91l.3.9c.1.3.15.55.15.76-.3 3.82-1.93 7.92-4.9 12.29-2.97 4.38-7.47 9.13-13.5 14.25-11.76 10.16-22.07 15.88-30.92 17.19-.7.12-1.46.04-2.26-.21zm-.75-4.44c0 2.41 1.61 3.32 4.83 2.71 6.84-1.11 15.03-6.03 24.58-14.78 10.05-8.95 15.84-17.09 17.34-24.43.7-3.02-1.21-4.77-5.73-5.28-2.41-.3-4.68-.33-6.79-.07-2.11.25-4.07.73-5.88 1.43-.2-.1-1.06.35-2.57 1.36-10.76 9.95-19.05 21.87-24.88 35.74-.6 1.1-.9 2.21-.9 3.32zM236.7 536.85c-2.71-2.92-4.43-6.21-5.13-9.88-.7-3.67-1.05-7.67-1.05-11.99 0-14.18 5.78-34.49 17.34-60.93 5.13-11.67 10.25-22.17 15.38-31.52 5.13-9.35 10.25-17.74 15.38-25.18 1.21-1.31 1.81-2.81 1.81-4.53 0-1.81-.91-3.22-2.71-4.22-3.62-1.41-5.03-2.97-4.22-4.68.3-.6 1.79-1.05 4.45-1.36 2.67-.3 6.41-.45 11.24-.45.4 0 .45-.15.15-.45-.3-.3-.35-.6-.15-.91 4.82-7.54 10.4-15.06 16.74-22.55 6.33-7.49 12.97-15.26 19.91-23.3.6-.7 3.42-2.01 8.45-3.92 2.41-.8 4.15-1.43 5.2-1.88 1.05-.45 2.19-.68 3.4-.68 1.1 0 1.66.45 1.66 1.36 0 .4-.51.75-1.51 1.05-9.45 1.91-25.09 17.85-46.9 47.81-1.61 2.31-1.26 3.47 1.05 3.47h21.87c5.93 0 10.53.02 13.8.08 3.27.05 5.31.07 6.11.07.91 0 1.51.15 1.81.45 0 .2-.28.73-.83 1.58-.55.86-1.28 1.33-2.19 1.43-5.73.2-12.29.53-19.68.98-7.39.45-15.81.93-25.26 1.43-1.71.3-2.96 1.11-3.77 2.41a556.272 556.272 0 0 0-15.08 23.38c-4.73 7.74-9.35 16.14-13.88 25.19-6.94 14.38-12.42 27.42-16.44 39.14-4.02 11.71-6.43 22.24-7.24 31.6-.1 1.31-.15 2.51-.15 3.62v3.62c0 17.49 6.18 26.24 18.55 26.24 3.52 0 7.44-.65 11.76-1.96 6.34-2.01 12.62-5.18 18.85-9.5 6.23-4.32 12.57-9.95 19-16.89 6.64-6.94 11.74-13.42 15.31-19.46 3.57-6.03 5.75-11.76 6.56-17.19 0-9.45-3.37-13.62-10.11-12.52-1.51.2-2.82.66-3.92 1.36-1.11.7-1.91 1.05-2.41 1.05-1.01 0-1.41-.45-1.21-1.36.5-.8 1.23-1.51 2.19-2.11.95-.6 2.74-1.46 5.35-2.56.4-.1 1.01-.15 1.81-.15 3.21 0 6.28 2.16 9.2 6.48 3.01 4.52 4.42 7.94 4.22 10.26-2.01 13.27-11.61 27.7-28.81 43.29-8.75 7.84-16.92 13.77-24.51 17.8-7.59 4.02-14.75 6.03-21.49 6.03-8.04 0-14.68-3.02-19.9-9.05z" class="w"/><path d="M267 461.29c-2.52 0-3.77-1.76-3.77-5.28 0-7.14 5.58-16.29 16.74-27.45 5.13-5.13 9.95-9.27 14.48-12.44 4.52-3.17 8.75-5.56 12.67-7.16.9-.3 1.88-.58 2.94-.83 1.05-.25 2.14-.38 3.24-.38 1.21 0 2.41.13 3.62.38s2.42.58 3.62.98c1.71.21 2.66.25 2.87.15 1.81-.3 3.11-.95 3.92-1.96.2-.2.5-.3.91-.3.4 0 .75.25 1.06.75.3.5.4.86.3 1.06-2.92 4.53-5.81 8.97-8.67 13.35-2.87 4.38-5.65 8.82-8.37 13.35-2.11 3.52-4.17 7.57-6.18 12.14-2.01 4.58-3.84 9.2-5.5 13.88a223.32 223.32 0 0 0-4.3 13.35c-1.21 4.22-2.01 7.79-2.41 10.71-.1.5-.15.96-.15 1.36v1.51c0 3.42 1.06 5.96 3.17 7.62 2.11 1.66 4.98 2.49 8.6 2.49 3.62 0 7.19-.6 10.71-1.81 5.33-1.81 12.27-6.13 20.81-12.97 4.12-3.32 7.82-6.74 11.08-10.25 3.27-3.52 6.11-6.84 8.52-9.96.9-1.01 1.51-1.51 1.81-1.51.1.1.15.25.15.45 0 .4-.2.96-.6 1.66-2.31 3.42-5.1 7.04-8.37 10.86-3.27 3.82-7.17 7.64-11.69 11.46-4.22 3.42-8.02 6.23-11.39 8.45-3.37 2.21-6.46 3.82-9.28 4.83-1.41.5-2.81.88-4.22 1.13-1.41.25-2.92.38-4.52.38-2.41 0-4.62-.38-6.64-1.13-2.01-.75-3.82-1.68-5.43-2.79-1.91-1.11-3.24-2.69-4-4.75-.75-2.06-1.08-4.4-.98-7.01.1-2.11.53-4.93 1.29-8.45.75-3.52 1.73-7.27 2.94-11.24 1.21-3.97 2.51-7.92 3.92-11.84 1.41-3.92 2.82-7.39 4.22-10.41 1.71-3.62 3.39-6.99 5.05-10.11 1.66-3.12 3.34-5.98 5.05-8.6.7-1.11.65-1.66-.15-1.66-.1 0-.25.1-.45.3-2.41 2.92-5.31 5.98-8.67 9.2-3.37 3.22-7.26 6.74-11.69 10.56-8.85 7.44-16.44 13.02-22.77 16.74-1.33.79-2.49 1.19-3.49 1.19zm5.28-10.55c0 2.41.9 3.62 2.71 3.62.7 0 1.46-.25 2.26-.75 5.63-3.52 11.56-8.27 17.8-14.25 6.23-5.98 12.92-13.25 20.06-21.79.3-.3.45-.65.45-1.05 0-1.11-.65-2.14-1.96-3.09-1.31-.96-2.96-1.43-4.98-1.43-1.11 0-2.26.15-3.47.45-4.73 1.21-10.71 5.78-17.95 13.72-3.42 3.82-6.31 7.49-8.67 11.01-2.36 3.52-4.25 6.88-5.66 10.1-.39 1.09-.59 2.25-.59 3.46z" class="w"/><path d="M354.53 447.12c-2.46 1.91-5.18 3.9-8.14 5.96-2.97 2.06-5.96 4-8.97 5.81-3.01 1.81-5.63 3.22-7.84 4.22-.6.2-1.53.2-2.79 0s-2.51-.68-3.77-1.43c-1.26-.75-2.36-1.76-3.32-3.01-.96-1.26-1.43-2.79-1.43-4.6 0-1.61.4-3.69 1.21-6.26.8-2.56 1.81-5.28 3.01-8.14 1.21-2.87 2.51-5.78 3.92-8.75 1.41-2.96 2.71-5.68 3.92-8.14 1.21-2.46 2.21-4.57 3.02-6.33.8-1.76 1.25-2.84 1.36-3.24.2-1.21.8-2.03 1.81-2.49 1-.45 1.96-.53 2.87-.23.9.3 1.56 1.01 1.96 2.11.4 1.11.15 2.56-.75 4.37-3.42 6.43-6.06 11.39-7.92 14.85-1.86 3.47-3.19 6.01-4 7.62-.8 1.61-1.28 2.59-1.43 2.94-.15.35-.28.68-.38.98-.1.3-.33.85-.68 1.66-.35.8-1.13 2.46-2.34 4.98-1.21 2.51-1.83 4.45-1.88 5.81-.05 1.36.28 2.34.98 2.94.7.6 1.58.88 2.64.83 1.05-.05 2.09-.17 3.09-.38 1.91-.4 4.3-1.36 7.16-2.87a126 126 0 0 0 8.82-5.13c3.02-1.91 5.83-3.82 8.45-5.73 2.61-1.91 4.62-3.52 6.03-4.83.91-.91 1.56-1.41 1.96-1.51.4-.1.63 0 .68.3.05.3-.08.75-.38 1.36-.3.6-.75 1.16-1.36 1.66-1.21 1.2-3.05 2.76-5.51 4.67zm-8.22-45.4c-2.21 2.11-4.07 3.02-5.58 2.71-2.21-.4-3.32-1.25-3.32-2.56 0-1.41 1.15-3.27 3.47-5.58 2.31-2.41 4.17-3.77 5.58-4.07 1.1-.2 2.13.13 3.09.98.95.86 1.28 1.73.98 2.64-.3 1.71-1.71 3.67-4.22 5.88z" class="w"/><path d="M345.39 464.01c-.2-.5-.15-1.01.15-1.51 9.75-15.08 16.39-26.69 19.91-34.84.6-1.51.91-2.77.91-3.77 0-.2-.15-.75-.45-1.66-.1-.4-.1-.76 0-1.06 1.21-.4 4.98-2.51 11.31-6.33.1-.2.3-.3.6-.3.6 0 1 .25 1.21.75.4.6.35 1.16-.15 1.66-3.22 4.43-5.96 8.27-8.22 11.54-2.26 3.27-3.94 6.01-5.05 8.22-.3.6-.45 1.11-.45 1.51 0 .5.55.55 1.66.15.91-.4 1.51-.8 1.81-1.21 3.92-4.73 9-9.6 15.23-14.63 6.43-5.23 11.46-8.6 15.08-10.1 3.12-.1 5.43.2 6.94.91.1.1.15.2.15.3 0 .3-.18.73-.53 1.28a8.44 8.44 0 0 1-1.21 1.51c-.45.45-.93.8-1.43 1.05-.5.25-.91.28-1.21.07-2.01-.91-4.73-.45-8.14 1.36-14.88 8.25-28.16 21.92-39.82 41.02 0 .3-.4.65-1.2 1.05-.8.3-1.71.68-2.71 1.13-1 .45-2.16 1.08-3.47 1.88-.52.62-.82.62-.92.02zM457.05 419.59c-2.26 1.56-4.8 2.54-7.61 2.94-1.71.3-4.25.51-7.62.6-3.37.1-7.07.2-11.09.3-4.02.1-8.04.15-12.07.15h-10.55c-1.11 1.51-2.29 3.19-3.54 5.05a61.278 61.278 0 0 0-3.55 5.96c-1.1 2.11-2.06 4.3-2.86 6.56-.8 2.26-1.26 4.6-1.36 7.01-.1 2.21.13 4.02.68 5.43.55 1.41 1.3 2.49 2.26 3.24.95.75 2.06 1.26 3.32 1.51 1.26.25 2.54.33 3.85.23 3.32-.5 6.86-1.46 10.63-2.87 3.77-1.41 7.01-2.87 9.73-4.37.8-.5 1.41-.58 1.81-.23.4.35.2.78-.6 1.28-1.11.81-2.41 1.69-3.92 2.64-1.51.95-3.17 1.88-4.98 2.79-1.81.91-3.7 1.73-5.66 2.49-1.96.75-3.84 1.28-5.65 1.59-1.51.3-3.17.12-4.98-.53-1.81-.65-3.47-1.63-4.98-2.94a17.673 17.673 0 0 1-3.77-4.6 10.121 10.121 0 0 1-1.36-5.66c.3-5.53 1.83-11.06 4.6-16.59a80.61 80.61 0 0 1 10.1-15.46c3.97-4.78 8.15-8.9 12.52-12.37 4.38-3.47 8.32-5.9 11.84-7.31 1.91-.6 3.62-.53 5.13.23 1.51.75 2.69 1.86 3.54 3.32.85 1.46 1.36 3.09 1.51 4.9.15 1.81-.23 3.47-1.13 4.98-1.51 2.82-4.22 5.18-8.15 7.09-3.92 1.91-8.4 3.27-13.42 4.07h8.29c2.91 0 5.68-.02 8.29-.07 2.61-.05 5.05-.13 7.32-.23 2.26-.1 4.2-.25 5.81-.45 2.11-.2 4.25-.85 6.41-1.96 2.16-1.11 3.85-2.21 5.05-3.32.5-.7.93-.96 1.28-.75.35.2.28.65-.23 1.36-.99 1.1-2.62 2.43-4.89 3.99zm-17.71-15.3c.1-1.21-.15-2.14-.75-2.79-.6-.65-1.49-.95-2.64-.9-1.16.05-2.49.48-4 1.28-3.72 2.11-7.49 4.9-11.31 8.37a169.88 169.88 0 0 0-10.85 10.78c2.61 0 5.32-.3 8.14-.91 2.82-.6 5.48-1.48 7.99-2.64 2.52-1.16 4.8-2.49 6.86-4 2.06-1.51 3.7-3.17 4.9-4.98 1-1.6 1.55-3.01 1.66-4.21zM342.15 374.39a297.28 297.28 0 0 1-13 6.06c-14.38 6.34-29.71 11.97-46 16.89-16.29 4.93-33.63 9.3-52.03 13.12.3-.5.55-1 .75-1.51.2-.5.4-1 .6-1.51h-.15c5.53-12.87 11.51-25.11 17.95-36.72 6.43-11.61 13.47-22.7 21.11-33.26 25.03-35.29 49.72-53.49 74.05-54.6.91-.03 1.81-.05 2.7-.04l.07-2.76c-.92.01-1.84.04-2.77.09-42.63 2.71-82.55 46.25-119.75 130.61v.45c-2.52 5.83-4.48 11.59-5.88 17.27-1.41 5.68-2.01 11.13-1.81 16.36.1 4.73 1.1 8.27 3.01 10.63 1.91 2.36 4.32 3.74 7.24 4.15 2.92.4 6.18-.15 9.8-1.66 3.62-1.51 7.19-3.82 10.71-6.94 1.1-1 2.29-2.16 3.54-3.47 1.26-1.31 2.29-2.46 3.09-3.47.81-1.11 1.03-1.73.68-1.89-.35-.15-.93.17-1.73.98-1.11 1.21-2.19 2.34-3.24 3.4a36.438 36.438 0 0 1-3.54 3.09c-2.42 1.81-5 3.29-7.77 4.45-2.77 1.16-5.33 1.58-7.69 1.28-2.36-.3-4.32-1.51-5.88-3.62-1.56-2.11-2.24-5.53-2.04-10.26.1-4.12.73-8.77 1.88-13.95 1.16-5.18 2.59-10.13 4.3-14.86 15.28-2.91 30.29-6.43 45.02-10.56 14.73-4.12 29.28-8.95 43.66-14.48 10.34-3.9 19.69-7.88 28.06-11.93-1.61-.44-3.26-.9-4.94-1.34z" class="w"/><g><path d="M156.39 328.82c0-4.89 0-5.79-.06-6.82-.06-1.09-.29-1.61-1.27-1.83-.24-.06-.74-.1-1.15-.1-.32 0-.5-.06-.5-.29 0-.23.21-.29.65-.29 1.56 0 3.42.1 4.24.1 1.21 0 2.92-.1 4.27-.1 3.68 0 5.01 1.35 5.48 1.83.65.68 1.47 2.12 1.47 3.83 0 4.57-3.06 7.78-7.25 7.78-.15 0-.47 0-.62-.03-.15-.03-.35-.06-.35-.29 0-.26.21-.35.82-.35 1.65 0 3.95-2.03 3.95-5.31 0-1.06-.09-3.22-1.74-4.82a4.167 4.167 0 0 0-2.95-1.25c-.44 0-.88.03-1.15.13-.15.06-.24.26-.24.61v12.87c0 2.96 0 5.5.15 6.88.09.9.26 1.61 1.15 1.74.41.06 1.06.13 1.5.13.32 0 .47.1.47.26 0 .23-.24.32-.56.32-1.94 0-3.8-.1-4.57-.1-.68 0-2.53.1-3.71.1-.38 0-.59-.1-.59-.32 0-.16.12-.26.47-.26.44 0 .8-.06 1.06-.13.59-.13.74-.84.85-1.77.15-1.35.15-3.89.15-6.85v-5.67zM174.96 331.44c0-4.02 0-4.77-.03-5.61-.06-.9-.29-1.18-1.09-1.43-.2-.06-.63-.09-1-.09-.26 0-.43-.09-.43-.28s.2-.25.57-.25c1.31 0 2.91.06 3.42.06.86 0 3.14-.06 3.91-.06 1.6 0 3.42.16 4.76 1.12.71.53 1.77 1.87 1.77 3.65 0 1.96-1.03 3.71-3.48 5.86 2.22 2.99 3.99 5.39 5.51 7.04 1.4 1.53 2.28 1.65 2.68 1.75.26.06.4.06.6.06.2 0 .31.16.31.28 0 .22-.17.28-.49.28h-2.4c-1.4 0-2.08-.15-2.74-.53-1.08-.59-2.03-1.84-3.42-3.89-1-1.43-2.05-3.21-2.37-3.61-.14-.16-.29-.19-.46-.19l-2.25-.06c-.12 0-.2.06-.2.22v.37c0 2.46.03 4.52.14 5.64.09.78.2 1.28.97 1.4.37.06.91.09 1.23.09.2 0 .31.16.31.28 0 .19-.2.28-.51.28-1.46 0-3.54-.09-3.91-.09-.49 0-2.08.09-3.08.09-.31 0-.49-.09-.49-.28 0-.12.09-.28.4-.28.37 0 .66-.03.88-.09.51-.12.66-.62.74-1.4.11-1.12.11-3.21.11-5.64v-4.69zm3.2 2.06c0 .28.06.37.23.47.54.19 1.28.25 1.91.25 1 0 1.34-.09 1.77-.44.77-.59 1.63-1.74 1.63-3.93 0-3.74-2.34-4.7-3.82-4.7-.63 0-1.23.03-1.48.09-.17.06-.23.16-.23.37v7.89zM191.66 333.78c0-4.52 2.91-10.37 10.53-10.37 6.33 0 10.27 3.83 10.27 9.91s-4.05 10.84-10.53 10.84c-7.31-.01-10.27-5.68-10.27-10.38zm17.06.5c0-5.86-3.22-9.47-7.28-9.47-2.8 0-6.08 1.62-6.08 8.16 0 5.45 2.85 9.75 7.59 9.75 1.78 0 5.77-.9 5.77-8.44zM217.14 331.44c0-4.02 0-4.77-.03-5.61-.06-.9-.29-1.18-1.08-1.43-.2-.06-.63-.09-1-.09-.26 0-.43-.09-.43-.28s.2-.25.57-.25c1.31 0 3.14.06 3.79.06.6 0 2.2-.06 3.2-.06.34 0 .51.06.51.25s-.14.28-.46.28c-.26 0-.43.03-.71.09-.68.12-.88.5-.94 1.43-.06.84-.06 1.59-.06 5.61v4.92c0 1.12.09 2.4.09 3.74 0 1.5-.09 3.18-.6 4.67-.54 1.62-2.08 3.49-4.51 5.04-.31.19-.71.41-1.26.69-.17.09-.4.12-.51.12-.11 0-.2-.12-.2-.25 0-.12.11-.25.54-.47.34-.19.71-.5 1.2-1.03 1.91-2.02 1.88-4.64 1.88-9.84v-7.59zM227.78 331.44c0-4.02 0-4.77-.03-5.61-.06-.9-.29-1.18-1.08-1.43-.2-.06-.63-.09-1-.09-.26 0-.43-.09-.43-.28s.2-.25.57-.25c1.31 0 2.91.06 3.62.06.8 0 6.36.03 6.85 0 .46-.03.86-.12 1.06-.16.14-.03.28-.12.4-.12.14 0 .17.12.17.25 0 .19-.14.5-.2 1.71-.03.28-.09 1.43-.14 1.74-.03.12-.08.44-.28.44-.17 0-.2-.12-.2-.34 0-.19-.03-.65-.17-.96-.2-.47-.4-.84-1.65-.96-.43-.06-3.42-.12-3.94-.12-.11 0-.17.09-.17.25v6.54c0 .16.03.28.17.28.57 0 3.82 0 4.39-.06.6-.06.97-.12 1.2-.4.2-.19.29-.34.4-.34.11 0 .2.12.2.28 0 .16-.06.59-.2 1.93-.06.53-.12 1.59-.12 1.78 0 .22-.03.59-.26.59-.17 0-.23-.09-.23-.22-.03-.28-.03-.62-.08-.97-.14-.53-.46-.93-1.4-1.03-.46-.06-3.31-.12-3.94-.12-.11 0-.14.12-.14.28v2.12c0 .9-.03 3.15 0 3.92.06 1.81.83 2.21 3.4 2.21.66 0 1.71-.03 2.37-.34.63-.31.91-.87 1.08-1.96.06-.28.11-.41.29-.41.2 0 .23.34.23.62 0 .59-.2 2.4-.34 2.93-.17.68-.4.68-1.34.68-1.88 0-3.4-.03-4.62-.09-1.23-.03-2.17-.06-2.91-.06-.28 0-.83.03-1.43.03-.6.03-1.23.06-1.74.06-.31 0-.49-.09-.49-.28 0-.12.09-.28.4-.28.37 0 .66-.03.88-.09.51-.12.66-.62.74-1.4.11-1.12.11-3.21.11-5.64v-4.69zM247.56 325.4l-3.74.09c-1.46.03-2.05.22-2.43.81-.26.38-.37.72-.43.9-.06.22-.12.34-.29.34s-.23-.16-.23-.44c0-.44.48-2.99.54-3.21.06-.34.14-.5.29-.5.2 0 .46.22 1.08.31.74.09 1.68.12 2.51.12h10.19c.8 0 1.34-.06 1.71-.12.4-.06.6-.12.68-.12.17 0 .2.16.2.56 0 .56-.06 2.52-.06 3.21-.03.28-.09.44-.23.44-.2 0-.26-.12-.28-.53l-.03-.28c-.06-.69-.71-1.5-2.97-1.53l-3.17-.06v10.72c0 2.43.03 4.52.14 5.67.09.75.23 1.25.97 1.37.34.06.91.09 1.28.09.29 0 .4.16.4.28 0 .19-.2.28-.48.28-1.66 0-3.34-.09-4.05-.09-.57 0-2.28.09-3.28.09-.31 0-.49-.09-.49-.28 0-.12.08-.28.4-.28.37 0 .69-.03.88-.09.51-.12.66-.62.74-1.4.11-1.12.11-3.21.11-5.64V325.4z" class="w"/></g><g><path d="M342.7 374.3c27.23-13.35 45.52-27.12 52.84-41.95.7-1.61 1.25-3.19 1.66-4.75.4-1.56.71-3.19.91-4.9 1.11-10.66-3.37-20.06-13.42-28.2-9.36-7.86-20.59-11.84-33.69-11.95-.94-.01-1.89.01-2.85.04l-.1 3.91-2.56 8.21 4.48 4.44-6.15 11.3-2.09 4.56.2 10.03s-7.07 9.7-7.08 12.66c-.01 2.96-7.21 20.98-14.51 26.58-7.29 5.6-2.78 5.21-2.78 5.21 9.79 1.38 18.86 3.32 27.25 5.64l-2.11-.83z" class="w"/><path d="m437.23 297.13 8.2-1.04.24-4.79-9.87-16.38.13-5.36-5.14-16.73-2.65-4.21-3.56-2.84-4.49-7.4-3.55-5.8-6.22-7.05-8.41-3.06-9.7-.44-8.66 1.73-9.59 3.1-7.52 4.46-6.95 7.3-1.53 7.41-6.83 7.88-2.36 15.27-.49 6.61-.1 4.08c.78-.04 1.57-.07 2.34-.08 13.64-.19 25.66 4.21 36.08 13.21 11.26 9.45 16.39 20.21 15.38 32.28-.5 3.92-1.61 7.64-3.32 11.16-7.27 13.85-25.19 27.01-51.17 39.46 29.07 8.48 49.57 21.56 62.53 32.16l11.25-9.51 4.61-2.88 4.91-2.02 6.35-.87-7.79-28.27-6.63-19.48-6.44-8.19-1.72-5.58 2.46-5.81 3-2.97 5.19-1.04 6.94-1.39 4.97-2.17 2.09-4.56-1.03-5.13-1.83-3.18.12-2.39.76-5.49z" class="w"/></g></svg>