<svg xmlns="http://www.w3.org/2000/svg" viewBox="0 0 141 126"><defs><clipPath id="clip-path"><path fill="none" d="M0 0h146v126H0z"/></clipPath><style>.cls-3{fill:#a32422}.cls-4{fill:#dc382c}</style></defs><g id="Layer_2" data-name="Layer 2"><g id="Layer_1-2" data-name="Layer 1"><g clip-path="url(#clip-path)"><path d="M141 97c-8 4-49 20-57 25s-14 4-21 1L6 99c-4-2-6-4-6-5V79l65-15c9-3 12-4 20-1s54 11 61 14v15c0 1-1 3-5 5Z" class="cls-3"/><path d="m141 82-57 25c-8 4-14 5-21 1L6 84c-8-4-8-6 0-9l59-23c9-3 12-4 20-1l56 22c8 3 7 5 0 9Z" class="cls-4"/><path d="M141 73c-8 4-49 20-57 25s-14 4-21 1L6 75c-4-2-6-4-6-5V55l65-15c9-3 12-4 20-1s54 11 61 14v14c0 2-1 4-5 6Z" class="cls-3"/><path d="M141 58 84 83c-8 4-14 4-21 1L6 60c-8-4-8-6 0-9l59-23c9-3 12-4 20-1l56 22c8 3 7 5 0 9Z" class="cls-4"/><path d="M141 48c-8 4-49 20-57 25s-14 4-21 1L6 50c-4-2-6-4-6-5V30s56-12 65-16 12-3 20 0 54 11 61 14v14c0 2-1 4-5 6Z" class="cls-3"/><path d="M141 33 84 58c-8 4-14 4-21 1L6 35c-8-4-8-6 0-9L65 3c9-3 12-4 20-1l56 22c8 3 7 5 0 9Z" class="cls-4"/></g><path fill="#fff" d="m76 12 9-3-2 6 9 4-12 1-3 7-5-8-14-1 11-4-4-6 11 4zm0 40L52 42l34-5-10 15zM43 22c10 0 18 3 18 7s-8 7-18 7-18-3-18-7 8-7 18-7Z"/><path fill="#741113" d="m107 20 20 8-20 8V20z"/><path fill="#ac2724" d="M107 20v16l-2 1-20-8 22-9z"/></g></g></svg>