<svg xmlns="http://www.w3.org/2000/svg" width="1e3" height="1e3" viewBox="0 0 250 250"><defs><linearGradient id="b" x1="-758.2" x2="-570.9" y1="24.2" y2="449.6" gradientTransform="translate(-15 1)" gradientUnits="userSpaceOnUse"><stop offset="0" stop-color="#d34537"/><stop offset="1" stop-color="#6a3b8f"/></linearGradient><linearGradient id="a" x1="-758.2" x2="-570.9" y1="24.2" y2="449.6" gradientUnits="userSpaceOnUse"><stop offset="0" stop-color="#d34537"/><stop offset="1" stop-color="#6a3b8f"/></linearGradient></defs><g transform="translate(831 64) scale(.46604)"><rect width="519.4" height="519.4" x="-1775" y="-129" fill="#fff" ry="116.8"/><g color="#000"><path fill="url(#a)" d="m-639-55-41 34a356 356 0 0 0-127 183c-8 32-8 65 3 94 12 29 34 53 66 69l21-40a83 83 0 0 1-44-46c-7-18-8-41-2-66 10-38 34-82 71-121 0 22 1 43 3 60 2 15 6 28 13 40s18 22 32 26c16 5 33-2 43-11 9-8 15-17 20-25 12 24 17 44 17 59-2 23-14 44-54 71l26 38c45-32 71-66 73-106s-17-79-45-127l-27-45-15 51s-5 17-13 33l-12 17-1 1-5-5c-2-4-5-12-7-24-3-23-3-60 1-107z" transform="translate(-747 -27) scale(1.1557)"/><path fill="url(#b)" d="M-677 172a54 54 0 0 0-48 82 54 54 0 0 0 61 24 54 54 0 0 0 40-52h-46l-2 5c-1 1-2 3-4 3h-6l-4-4-1-4 1-4 3-4 5-1z" transform="translate(-747 -27) scale(1.1557)"/></g></g></svg>